<?xml version="1.0" standalone="no"?>
<!DOCTYPE svg PUBLIC "-//W3C//DTD SVG 20010904//EN"
 "http://www.w3.org/TR/2001/REC-SVG-20010904/DTD/svg10.dtd">
<svg version="1.0" xmlns="http://www.w3.org/2000/svg"
 width="352.000000pt" height="352.000000pt" viewBox="0 0 352.000000 352.000000"
 preserveAspectRatio="xMidYMid meet">
<metadata>
Created by potrace 1.14, written by Peter Selinger 2001-2017
</metadata>
<g transform="translate(0.000000,352.000000) scale(0.100000,-0.100000)"
fill="#000000" stroke="none">
<path d="M1720 3509 c-55 -14 -74 -19 -95 -23 -11 -3 -69 -16 -130 -31 -60
-15 -117 -28 -125 -30 -307 -72 -466 -109 -468 -110 -1 -1 -4 -11 -7 -21 -23
-110 -89 -230 -174 -315 -79 -78 -158 -126 -270 -164 l-84 -28 7 -196 c4 -108
9 -216 11 -241 2 -25 7 -74 10 -110 15 -171 38 -322 91 -586 2 -11 22 -85 45
-165 45 -159 49 -175 34 -172 -5 0 -33 4 -61 8 -64 8 -127 25 -231 63 l-83 31
0 -42 c0 -34 13 -62 81 -170 l81 -128 -26 -32 c-14 -18 -50 -59 -80 -92 -31
-33 -56 -67 -56 -75 0 -8 15 -21 32 -29 18 -8 51 -22 73 -32 46 -20 138 -44
210 -55 28 -5 53 -9 58 -10 4 -1 12 -2 17 -3 6 0 10 -23 10 -49 0 -77 39 -108
177 -141 l78 -18 0 -70 c0 -82 7 -93 81 -128 65 -31 280 -77 364 -78 8 0 35
-14 59 -31 24 -17 51 -36 60 -41 9 -6 41 -27 71 -46 108 -71 257 -149 284
-149 22 0 297 148 316 170 3 3 37 26 75 52 59 39 80 47 135 53 179 18 324 61
374 110 12 12 16 36 16 89 l0 73 63 10 c78 13 153 48 175 81 9 14 17 43 18 66
3 54 2 53 17 53 115 4 354 76 378 115 4 7 -7 28 -24 48 -18 21 -56 64 -84 97
l-53 60 79 124 c74 117 85 142 82 196 l-1 22 -67 -26 c-110 -42 -182 -62 -247
-68 -33 -4 -64 -9 -68 -11 -11 -7 -10 -3 7 47 40 113 98 347 120 484 5 28 9
52 10 55 1 6 15 96 21 135 7 55 13 109 19 180 4 39 8 86 10 105 6 48 16 243
19 366 l3 102 -90 30 c-49 17 -114 46 -144 64 -52 32 -137 107 -178 158 -33
42 -91 162 -105 217 -16 61 -3 54 -205 102 -71 17 -188 44 -260 62 -71 17
-137 32 -145 34 -112 25 -199 45 -211 49 -36 11 -67 13 -99 5z"/>
</g>
</svg>
